<svg width="54" height="55" viewBox="0 0 54 55" fill="none" xmlns="http://www.w3.org/2000/svg">
<path d="M15.4365 13.971C14.7424 13.2452 15.1311 11.9968 16.0751 11.8226L31.928 11.7935C31.928 8.30968 27.0416 5.46452 23.71 5.46452C22.7383 3.95484 21.4334 2.73548 19.8787 1.83548C18.3517 0.993548 16.6026 0.5 14.7147 0.5C12.327 0.5 10.1337 1.28387 8.32905 2.64839C8.32905 2.64839 8.32905 2.64839 8.30128 2.67742C8.07918 2.85161 7.85707 3.02581 7.66272 3.2C7.49614 3.31613 7.35733 3.46129 7.21851 3.60645C6.91311 3.89677 6.60771 4.1871 6.33008 4.47742C6.33008 4.47742 6.33008 4.47742 6.30231 4.47742C6.30231 4.47742 6.30231 4.47742 6.30231 4.50645C2.11003 8.94839 0 14.7548 0 20.5323C0 26.3387 2.11003 32.1452 6.35784 36.5871C7.07969 37.3419 7.82931 38.0097 8.63445 38.6484L13.2432 43.4677L18.4905 48.9548L13.4931 51.9452H10.2725C8.91208 51.9452 7.82931 53.0774 7.82931 54.5H21.6555V51.9452H18.8237L26.181 47.5323L23.9321 44.9774L22.3496 43.1774C23.8766 43.1194 25.4314 42.9161 26.9306 42.5387L28.4021 44.0774L30.401 46.1677C31.6781 47.4742 33.3717 48.229 35.1763 48.229H36.2314L40.2571 52.4387C41.5342 53.7742 43.2278 54.5 45.0324 54.5H54L15.4365 13.971ZM14.437 5.46452C14.437 4.62258 15.0756 3.95484 15.8807 3.95484C16.6859 3.95484 17.3244 4.62258 17.3244 5.46452C17.3244 6.30645 16.6859 6.97419 15.8807 6.97419C15.0756 6.97419 14.437 6.27742 14.437 5.46452ZM20.8504 47.7935L18.2406 44.8323L16.1306 42.4516C17.0468 42.7129 17.963 42.8871 18.8792 43.0323L20.7116 45.0935L22.3496 46.9516L20.8504 47.7935Z" fill="black"/>
</svg>
