<svg width="48" height="49" viewBox="0 0 48 49" fill="none" xmlns="http://www.w3.org/2000/svg">
<path d="M13.7374 12.662C13.1207 12.0171 13.4661 10.908 14.3047 10.7532L28.3897 10.7274C28.3897 7.63206 24.0483 5.10421 21.0882 5.10421C20.2249 3.7629 19.0655 2.67953 17.6842 1.8799C16.3275 1.13186 14.7734 0.693359 13.0961 0.693359C10.9747 0.693359 9.02598 1.38981 7.42261 2.60215C7.42261 2.60215 7.42261 2.60215 7.39794 2.62794C7.20061 2.78271 7.00327 2.93747 6.8306 3.09224C6.6826 3.19542 6.55926 3.32439 6.43592 3.45336C6.16459 3.71131 5.89325 3.96925 5.64657 4.2272C5.64657 4.2272 5.64657 4.2272 5.62191 4.2272C5.62191 4.2272 5.62191 4.2272 5.62191 4.25299C1.89717 8.19954 0.0224609 13.3584 0.0224609 18.4915C0.0224609 23.6504 1.89717 28.8093 5.67124 32.7558C6.31259 33.4265 6.9786 34.0198 7.69395 34.5872L11.7887 38.8691L16.4508 43.7443L12.0107 46.4011H9.14931C7.94062 46.4011 6.9786 47.4071 6.9786 48.671H19.2628V46.4011H16.7468L23.2836 42.4803L21.2856 40.2104L19.8795 38.6112C21.2362 38.5596 22.6176 38.379 23.9496 38.0437L25.257 39.4108L27.033 41.268C28.1677 42.4287 29.6724 43.0994 31.2758 43.0994H32.2131L35.7898 46.8396C36.9245 48.0261 38.4292 48.671 40.0326 48.671H48.0001L13.7374 12.662ZM12.8494 5.10421C12.8494 4.35617 13.4167 3.7629 14.1321 3.7629C14.8474 3.7629 15.4148 4.35617 15.4148 5.10421C15.4148 5.85225 14.8474 6.44552 14.1321 6.44552C13.4167 6.44552 12.8494 5.82645 12.8494 5.10421ZM18.5475 42.7125L16.2288 40.0815L14.3541 37.9663C15.1681 38.1985 15.9821 38.3532 16.7961 38.4822L18.4242 40.3136L19.8795 41.9644L18.5475 42.7125Z" fill="#E5E5E5"/>
</svg>
